<svg width="100" height="100" viewBox="0 0 100 100" fill="none" xmlns="http://www.w3.org/2000/svg">
<path d="M93.6365 48.8281L87.2224 14.4531C87.0657 13.6152 86.7392 12.8182 86.263 12.1112C85.7869 11.4041 85.1711 10.8019 84.4537 10.3416C83.7362 9.88137 82.9321 9.57273 82.0909 9.43471C81.2497 9.29668 80.3892 9.33219 79.5622 9.53906L79.4411 9.57421L58.9255 15.625H41.074L20.5583 9.59374L20.4372 9.55859C19.6103 9.35173 18.7498 9.31621 17.9086 9.45424C17.0674 9.59226 16.2633 9.9009 15.5458 10.3612C14.8283 10.8215 14.2126 11.4236 13.7364 12.1307C13.2603 12.8378 12.9338 13.6347 12.7771 14.4727L6.36302 48.8281C6.08874 50.204 6.29233 51.6323 6.94014 52.8768C7.58794 54.1213 8.64114 55.1073 9.92552 55.6719C10.7481 56.0491 11.6417 56.2462 12.5466 56.25C13.6297 56.2495 14.6928 55.9581 15.6247 55.4062V71.875C15.6247 76.019 17.2709 79.9933 20.2012 82.9235C23.1315 85.8538 27.1057 87.5 31.2497 87.5H68.7497C72.8937 87.5 76.868 85.8538 79.7983 82.9235C82.7285 79.9933 84.3747 76.019 84.3747 71.875V55.4102C85.3057 55.961 86.3672 56.2523 87.449 56.2539C88.3548 56.2513 89.2497 56.0555 90.074 55.6797C91.3599 55.1149 92.4142 54.1276 93.0621 52.8814C93.71 51.6353 93.9127 50.2052 93.6365 48.8281ZM12.4997 50L18.9177 15.625L35.3513 20.457L12.4997 50ZM68.7497 81.25H53.1247V76.293L58.4607 70.9609C59.0471 70.3746 59.3765 69.5793 59.3765 68.75C59.3765 67.9207 59.0471 67.1254 58.4607 66.5391C57.8743 65.9527 57.079 65.6233 56.2497 65.6233C55.4205 65.6233 54.6252 65.9527 54.0388 66.5391L49.9997 70.582L45.9607 66.5391C45.3743 65.9527 44.579 65.6233 43.7497 65.6233C42.9205 65.6233 42.1252 65.9527 41.5388 66.5391C40.9524 67.1254 40.623 67.9207 40.623 68.75C40.623 69.5793 40.9524 70.3746 41.5388 70.9609L46.8747 76.293V81.25H31.2497C28.7633 81.25 26.3788 80.2623 24.6206 78.5041C22.8625 76.746 21.8747 74.3614 21.8747 71.875V48.0898L42.156 21.875H57.8396L78.1247 48.0898V71.875C78.1247 74.3614 77.137 76.746 75.3789 78.5041C73.6207 80.2623 71.2361 81.25 68.7497 81.25ZM87.4997 50L64.6482 20.457L81.0818 15.625L87.4997 50ZM40.6247 54.6875C40.6247 55.6146 40.3498 56.5209 39.8348 57.2917C39.3197 58.0626 38.5876 58.6634 37.7311 59.0182C36.8745 59.373 35.932 59.4658 35.0228 59.2849C34.1135 59.1041 33.2782 58.6576 32.6227 58.0021C31.9671 57.3465 31.5207 56.5113 31.3398 55.602C31.1589 54.6927 31.2518 53.7502 31.6066 52.8937C31.9613 52.0371 32.5621 51.3051 33.333 50.79C34.1039 50.2749 35.0101 50 35.9372 50C37.1804 50 38.3727 50.4939 39.2518 51.3729C40.1309 52.252 40.6247 53.4443 40.6247 54.6875ZM68.7497 54.6875C68.7497 55.6146 68.4748 56.5209 67.9598 57.2917C67.4447 58.0626 66.7126 58.6634 65.8561 59.0182C64.9995 59.373 64.057 59.4658 63.1478 59.2849C62.2385 59.1041 61.4032 58.6576 60.7477 58.0021C60.0921 57.3465 59.6457 56.5113 59.4648 55.602C59.2839 54.6927 59.3768 53.7502 59.7316 52.8937C60.0863 52.0371 60.6871 51.3051 61.458 50.79C62.2289 50.2749 63.1351 50 64.0622 50C65.3054 50 66.4977 50.4939 67.3768 51.3729C68.2559 52.252 68.7497 53.4443 68.7497 54.6875Z" fill="black"/>
</svg>
